<mxfile host="app.diagrams.net" agent="Mozilla/5.0 (Windows NT 10.0; Win64; x64) AppleWebKit/537.36 (KHTML, like Gecko) Chrome/131.0.0.0 Safari/537.36" version="25.0.1">
  <diagram id="C5RBs43oDa-KdzZeNtuy" name="Page-1">
    <mxGraphModel dx="1195" dy="643" grid="1" gridSize="10" guides="1" tooltips="1" connect="1" arrows="1" fold="1" page="1" pageScale="1" pageWidth="827" pageHeight="1169" math="0" shadow="0">
      <root>
        <mxCell id="WIyWlLk6GJQsqaUBKTNV-0" />
        <mxCell id="WIyWlLk6GJQsqaUBKTNV-1" parent="WIyWlLk6GJQsqaUBKTNV-0" />
        <mxCell id="JBAHIrVAHl8kQhqiwqEh-29" style="edgeStyle=orthogonalEdgeStyle;rounded=0;orthogonalLoop=1;jettySize=auto;html=1;entryX=0.5;entryY=0;entryDx=0;entryDy=0;" edge="1" parent="WIyWlLk6GJQsqaUBKTNV-1" source="JBAHIrVAHl8kQhqiwqEh-3" target="JBAHIrVAHl8kQhqiwqEh-5">
          <mxGeometry relative="1" as="geometry" />
        </mxCell>
        <mxCell id="JBAHIrVAHl8kQhqiwqEh-3" value="start" style="strokeWidth=1;html=1;shape=mxgraph.flowchart.terminator;whiteSpace=wrap;" vertex="1" parent="WIyWlLk6GJQsqaUBKTNV-1">
          <mxGeometry x="320" y="40" width="100" height="20" as="geometry" />
        </mxCell>
        <mxCell id="JBAHIrVAHl8kQhqiwqEh-4" value="end" style="strokeWidth=1;html=1;shape=mxgraph.flowchart.terminator;whiteSpace=wrap;" vertex="1" parent="WIyWlLk6GJQsqaUBKTNV-1">
          <mxGeometry x="320" y="610" width="100" height="20" as="geometry" />
        </mxCell>
        <mxCell id="JBAHIrVAHl8kQhqiwqEh-30" style="edgeStyle=orthogonalEdgeStyle;rounded=0;orthogonalLoop=1;jettySize=auto;html=1;entryX=0.5;entryY=0;entryDx=0;entryDy=0;" edge="1" parent="WIyWlLk6GJQsqaUBKTNV-1" source="JBAHIrVAHl8kQhqiwqEh-5" target="JBAHIrVAHl8kQhqiwqEh-10">
          <mxGeometry relative="1" as="geometry" />
        </mxCell>
        <mxCell id="JBAHIrVAHl8kQhqiwqEh-5" value="input : int[] numList, int n" style="shape=parallelogram;html=1;strokeWidth=1;perimeter=parallelogramPerimeter;whiteSpace=wrap;rounded=1;arcSize=12;size=0.23;" vertex="1" parent="WIyWlLk6GJQsqaUBKTNV-1">
          <mxGeometry x="247.5" y="80" width="245" height="20" as="geometry" />
        </mxCell>
        <mxCell id="JBAHIrVAHl8kQhqiwqEh-32" style="edgeStyle=orthogonalEdgeStyle;rounded=0;orthogonalLoop=1;jettySize=auto;html=1;entryX=0.5;entryY=0;entryDx=0;entryDy=0;" edge="1" parent="WIyWlLk6GJQsqaUBKTNV-1" source="JBAHIrVAHl8kQhqiwqEh-6" target="JBAHIrVAHl8kQhqiwqEh-7">
          <mxGeometry relative="1" as="geometry" />
        </mxCell>
        <mxCell id="JBAHIrVAHl8kQhqiwqEh-6" value="int temp = 0" style="rounded=1;whiteSpace=wrap;html=1;absoluteArcSize=1;arcSize=14;strokeWidth=1;" vertex="1" parent="WIyWlLk6GJQsqaUBKTNV-1">
          <mxGeometry x="320" y="160" width="100" height="20" as="geometry" />
        </mxCell>
        <mxCell id="JBAHIrVAHl8kQhqiwqEh-7" value="for (int i = 0; i &amp;lt; numList.length; i++)" style="swimlane;whiteSpace=wrap;html=1;" vertex="1" parent="WIyWlLk6GJQsqaUBKTNV-1">
          <mxGeometry x="125" y="200" width="490" height="330" as="geometry" />
        </mxCell>
        <mxCell id="JBAHIrVAHl8kQhqiwqEh-23" style="edgeStyle=orthogonalEdgeStyle;rounded=0;orthogonalLoop=1;jettySize=auto;html=1;entryX=0.5;entryY=1;entryDx=0;entryDy=0;exitX=0.5;exitY=1;exitDx=0;exitDy=0;" edge="1" parent="JBAHIrVAHl8kQhqiwqEh-7" source="JBAHIrVAHl8kQhqiwqEh-8" target="JBAHIrVAHl8kQhqiwqEh-7">
          <mxGeometry relative="1" as="geometry">
            <Array as="points">
              <mxPoint x="245" y="320" />
              <mxPoint x="245" y="320" />
            </Array>
          </mxGeometry>
        </mxCell>
        <mxCell id="JBAHIrVAHl8kQhqiwqEh-8" value="for (int j = 0; j &amp;lt; numList.length; j++)" style="swimlane;whiteSpace=wrap;html=1;" vertex="1" parent="JBAHIrVAHl8kQhqiwqEh-7">
          <mxGeometry x="40" y="60" width="410" height="250" as="geometry" />
        </mxCell>
        <mxCell id="JBAHIrVAHl8kQhqiwqEh-12" style="edgeStyle=orthogonalEdgeStyle;rounded=0;orthogonalLoop=1;jettySize=auto;html=1;entryX=0.5;entryY=0;entryDx=0;entryDy=0;exitX=0.971;exitY=0.5;exitDx=0;exitDy=0;exitPerimeter=0;" edge="1" parent="JBAHIrVAHl8kQhqiwqEh-8" source="JBAHIrVAHl8kQhqiwqEh-9" target="JBAHIrVAHl8kQhqiwqEh-8">
          <mxGeometry relative="1" as="geometry">
            <Array as="points">
              <mxPoint x="336" y="76" />
              <mxPoint x="430" y="75" />
              <mxPoint x="430" y="-20" />
              <mxPoint x="205" y="-20" />
            </Array>
          </mxGeometry>
        </mxCell>
        <mxCell id="JBAHIrVAHl8kQhqiwqEh-19" style="edgeStyle=orthogonalEdgeStyle;rounded=0;orthogonalLoop=1;jettySize=auto;html=1;entryX=0.5;entryY=0;entryDx=0;entryDy=0;" edge="1" parent="JBAHIrVAHl8kQhqiwqEh-8" source="JBAHIrVAHl8kQhqiwqEh-9" target="JBAHIrVAHl8kQhqiwqEh-14">
          <mxGeometry relative="1" as="geometry" />
        </mxCell>
        <mxCell id="JBAHIrVAHl8kQhqiwqEh-9" value="(n - numList[i])의 절댓값이 (n - numList[j])의 절댓값 보다 큰 가?" style="rhombus;whiteSpace=wrap;html=1;" vertex="1" parent="JBAHIrVAHl8kQhqiwqEh-8">
          <mxGeometry x="15" y="51" width="380" height="50" as="geometry" />
        </mxCell>
        <mxCell id="JBAHIrVAHl8kQhqiwqEh-11" value="no" style="text;html=1;align=left;verticalAlign=middle;whiteSpace=wrap;rounded=0;" vertex="1" parent="JBAHIrVAHl8kQhqiwqEh-8">
          <mxGeometry x="385" y="51" width="40" height="30" as="geometry" />
        </mxCell>
        <mxCell id="JBAHIrVAHl8kQhqiwqEh-20" style="edgeStyle=orthogonalEdgeStyle;rounded=0;orthogonalLoop=1;jettySize=auto;html=1;" edge="1" parent="JBAHIrVAHl8kQhqiwqEh-8" source="JBAHIrVAHl8kQhqiwqEh-14" target="JBAHIrVAHl8kQhqiwqEh-15">
          <mxGeometry relative="1" as="geometry" />
        </mxCell>
        <mxCell id="JBAHIrVAHl8kQhqiwqEh-14" value="temp = numList[i]" style="rounded=1;whiteSpace=wrap;html=1;" vertex="1" parent="JBAHIrVAHl8kQhqiwqEh-8">
          <mxGeometry x="130" y="127" width="150" height="20" as="geometry" />
        </mxCell>
        <mxCell id="JBAHIrVAHl8kQhqiwqEh-21" style="edgeStyle=orthogonalEdgeStyle;rounded=0;orthogonalLoop=1;jettySize=auto;html=1;entryX=0.5;entryY=0;entryDx=0;entryDy=0;" edge="1" parent="JBAHIrVAHl8kQhqiwqEh-8" source="JBAHIrVAHl8kQhqiwqEh-15" target="JBAHIrVAHl8kQhqiwqEh-17">
          <mxGeometry relative="1" as="geometry" />
        </mxCell>
        <mxCell id="JBAHIrVAHl8kQhqiwqEh-15" value="numList[i] = numList[j]" style="rounded=1;whiteSpace=wrap;html=1;" vertex="1" parent="JBAHIrVAHl8kQhqiwqEh-8">
          <mxGeometry x="130" y="169" width="150" height="20" as="geometry" />
        </mxCell>
        <mxCell id="JBAHIrVAHl8kQhqiwqEh-22" style="edgeStyle=orthogonalEdgeStyle;rounded=0;orthogonalLoop=1;jettySize=auto;html=1;entryX=0.5;entryY=1;entryDx=0;entryDy=0;exitX=0.5;exitY=1;exitDx=0;exitDy=0;" edge="1" parent="JBAHIrVAHl8kQhqiwqEh-8" source="JBAHIrVAHl8kQhqiwqEh-17" target="JBAHIrVAHl8kQhqiwqEh-8">
          <mxGeometry relative="1" as="geometry">
            <mxPoint x="190" y="300" as="targetPoint" />
            <Array as="points">
              <mxPoint x="205" y="240" />
              <mxPoint x="205" y="240" />
            </Array>
          </mxGeometry>
        </mxCell>
        <mxCell id="JBAHIrVAHl8kQhqiwqEh-17" value="numList[j] = temp" style="rounded=1;whiteSpace=wrap;html=1;" vertex="1" parent="JBAHIrVAHl8kQhqiwqEh-8">
          <mxGeometry x="130" y="210" width="150" height="20" as="geometry" />
        </mxCell>
        <mxCell id="JBAHIrVAHl8kQhqiwqEh-18" value="yes" style="text;html=1;align=left;verticalAlign=middle;whiteSpace=wrap;rounded=0;" vertex="1" parent="JBAHIrVAHl8kQhqiwqEh-8">
          <mxGeometry x="209" y="97" width="40" height="30" as="geometry" />
        </mxCell>
        <mxCell id="JBAHIrVAHl8kQhqiwqEh-33" style="edgeStyle=orthogonalEdgeStyle;rounded=0;orthogonalLoop=1;jettySize=auto;html=1;entryX=0.499;entryY=0.03;entryDx=0;entryDy=0;entryPerimeter=0;" edge="1" parent="JBAHIrVAHl8kQhqiwqEh-8" target="JBAHIrVAHl8kQhqiwqEh-9">
          <mxGeometry relative="1" as="geometry">
            <mxPoint x="205" y="25" as="sourcePoint" />
            <mxPoint x="189.82999999999998" y="51" as="targetPoint" />
          </mxGeometry>
        </mxCell>
        <mxCell id="JBAHIrVAHl8kQhqiwqEh-34" style="edgeStyle=orthogonalEdgeStyle;rounded=0;orthogonalLoop=1;jettySize=auto;html=1;entryX=0.499;entryY=0.03;entryDx=0;entryDy=0;entryPerimeter=0;" edge="1" parent="JBAHIrVAHl8kQhqiwqEh-7">
          <mxGeometry relative="1" as="geometry">
            <mxPoint x="244.89999999999998" y="23" as="sourcePoint" />
            <mxPoint x="245.07" y="60" as="targetPoint" />
          </mxGeometry>
        </mxCell>
        <mxCell id="JBAHIrVAHl8kQhqiwqEh-31" style="edgeStyle=orthogonalEdgeStyle;rounded=0;orthogonalLoop=1;jettySize=auto;html=1;entryX=0.5;entryY=0;entryDx=0;entryDy=0;" edge="1" parent="WIyWlLk6GJQsqaUBKTNV-1" source="JBAHIrVAHl8kQhqiwqEh-10" target="JBAHIrVAHl8kQhqiwqEh-6">
          <mxGeometry relative="1" as="geometry" />
        </mxCell>
        <mxCell id="JBAHIrVAHl8kQhqiwqEh-10" value="numList 정렬(오름차순)" style="rounded=1;whiteSpace=wrap;html=1;" vertex="1" parent="WIyWlLk6GJQsqaUBKTNV-1">
          <mxGeometry x="295" y="120" width="150" height="20" as="geometry" />
        </mxCell>
        <mxCell id="JBAHIrVAHl8kQhqiwqEh-25" value="output : int[] numList" style="shape=parallelogram;html=1;strokeWidth=1;perimeter=parallelogramPerimeter;whiteSpace=wrap;rounded=1;arcSize=12;size=0.23;" vertex="1" parent="WIyWlLk6GJQsqaUBKTNV-1">
          <mxGeometry x="262.5" y="565" width="215" height="20" as="geometry" />
        </mxCell>
        <mxCell id="JBAHIrVAHl8kQhqiwqEh-26" style="edgeStyle=orthogonalEdgeStyle;rounded=0;orthogonalLoop=1;jettySize=auto;html=1;entryX=0.5;entryY=0;entryDx=0;entryDy=0;" edge="1" parent="WIyWlLk6GJQsqaUBKTNV-1" source="JBAHIrVAHl8kQhqiwqEh-7" target="JBAHIrVAHl8kQhqiwqEh-25">
          <mxGeometry relative="1" as="geometry">
            <mxPoint x="370" y="560" as="targetPoint" />
          </mxGeometry>
        </mxCell>
        <mxCell id="JBAHIrVAHl8kQhqiwqEh-27" style="edgeStyle=orthogonalEdgeStyle;rounded=0;orthogonalLoop=1;jettySize=auto;html=1;entryX=0.5;entryY=0;entryDx=0;entryDy=0;entryPerimeter=0;" edge="1" parent="WIyWlLk6GJQsqaUBKTNV-1" source="JBAHIrVAHl8kQhqiwqEh-25" target="JBAHIrVAHl8kQhqiwqEh-4">
          <mxGeometry relative="1" as="geometry" />
        </mxCell>
      </root>
    </mxGraphModel>
  </diagram>
</mxfile>
